<svg width="10" height="10" viewBox="0 0 10 10" fill="none" xmlns="http://www.w3.org/2000/svg">
<path d="M9.19758 6.56384C8.58534 6.56384 7.9842 6.46808 7.41454 6.27983C7.1354 6.18462 6.79225 6.27196 6.62188 6.44694L5.49749 7.29574C4.1935 6.59967 3.39028 5.7967 2.70372 4.50251L3.52754 3.40741C3.74158 3.19366 3.81835 2.88142 3.72637 2.58846C3.53731 2.0158 3.44127 1.41494 3.44127 0.802446C3.44129 0.359973 3.08132 0 2.63887 0H0.80242C0.359973 0 0 0.359973 0 0.80242C0 5.87402 4.12598 9.99997 9.19758 9.99997C9.64003 9.99997 10 9.64 10 9.19755V7.36623C9.99997 6.92381 9.64 6.56384 9.19758 6.56384Z" fill="#28292D"/>
</svg>
