<svg width="80" height="80" viewBox="0 0 80 80" fill="none" xmlns="http://www.w3.org/2000/svg">
<path d="M75.9747 26.6663C75.26 26.6663 74.3747 26.7023 73.3813 26.7677L71.8947 21.5557C74.3613 21.3463 75.9427 21.333 76 21.333C78.2091 21.333 80 19.5421 80 17.333C80 15.1239 78.2091 13.333 76 13.333C74.888 13.333 48.6373 13.4983 36.904 27.837C26.876 40.093 13.476 42.6663 4 42.6663C1.79086 42.6663 0 44.4572 0 46.6663C0 48.8755 1.79086 50.6663 4 50.6663C4.46533 50.6663 4.94933 50.6517 5.42933 50.641L6.94 55.9263C5.96667 55.9703 4.988 55.9997 4 55.9997C1.79086 55.9997 0 57.7905 0 59.9997C0 62.2088 1.79086 63.9997 4 63.9997C23.9133 63.9997 41.4667 55.9543 53.416 41.3463C56.8827 37.1143 68.9813 34.7103 76.0253 34.6663C78.2345 34.6524 80.014 32.8501 80 30.641C79.986 28.4319 78.1838 26.6524 75.9747 26.6663ZM70.676 27.009C69.1293 27.1757 67.4373 27.409 65.6627 27.737L64.196 22.6023C65.9867 22.2623 67.68 22.0143 69.1973 21.8317L70.676 27.009ZM38.5133 44.7423L36.9333 39.1797C38.376 37.9563 39.745 36.6487 41.0333 35.2637L42.7147 41.1303C41.3789 42.408 39.9765 43.6141 38.5133 44.7437V44.7423ZM17.324 54.5477L15.8667 49.445C17.4667 49.1063 19.0813 48.689 20.7173 48.169L22.1747 53.2423C20.5898 53.7472 18.9729 54.1823 17.324 54.5477ZM24.696 52.365L23.2373 47.2983C24.8192 46.6939 26.3676 46.0054 27.876 45.2357L29.3533 50.3783C27.8387 51.1037 26.2862 51.7659 24.696 52.365ZM31.7693 49.129L30.2733 43.9183C31.795 43.0256 33.264 42.0462 34.6733 40.985L36.2187 46.4077C34.7827 47.393 33.2947 48.2917 31.7693 49.129ZM44.8613 38.9623L43.1187 32.8783C44.3256 31.4315 45.7206 30.1526 47.2667 29.0757L48.8493 34.6277C48.2643 35.1341 47.7208 35.6865 47.224 36.2797C46.4653 37.2077 45.672 38.0957 44.8613 38.9623ZM51.128 32.9117L49.6093 27.5783C51.0916 26.7452 52.631 26.0181 54.216 25.4023L55.6827 30.545C54.0971 31.1933 52.5743 31.9855 51.1333 32.9117H51.128ZM58.1947 29.629L56.728 24.5023C58.3493 23.969 59.9813 23.521 61.5733 23.153L63.04 28.281C61.428 28.649 59.796 29.0943 58.1987 29.629H58.1947ZM2.66667 46.6663C2.66667 45.93 3.26362 45.333 4 45.333C14.052 45.333 28.2787 42.5903 38.968 29.5263C49.9093 16.153 74.94 15.9997 76 15.9997C76.7364 15.9997 77.3333 16.5966 77.3333 17.333C77.3333 18.0694 76.7364 18.6663 76 18.6663C71.3463 18.781 66.7133 19.3292 62.1613 20.3037H62.1493C59.6532 20.8313 57.1939 21.5199 54.7867 22.365C54.7707 22.365 54.756 22.365 54.74 22.365C54.724 22.365 54.6813 22.3997 54.648 22.4117C49.4613 24.2717 44.4347 27.0477 41.0307 31.2117C29.6813 45.0877 14.6293 47.9997 4 47.9997C3.26362 47.9997 2.66667 47.4027 2.66667 46.6663ZM8.16667 50.5183C9.79867 50.405 11.492 50.2197 13.2333 49.9397L14.7 55.065C13.0458 55.3557 11.3658 55.5779 9.66 55.7317L8.16667 50.5183ZM76.9493 31.5997C76.702 31.8533 76.3635 31.9973 76.0093 31.9997C70.2173 32.0357 55.968 34.0143 51.352 39.6583C39.916 53.6357 23.0987 61.333 4 61.333C3.26362 61.333 2.66667 60.7361 2.66667 59.9997C2.66667 59.2633 3.26362 58.6663 4 58.6663C5.56267 58.6663 7.104 58.593 8.63333 58.4863C8.64933 58.4863 8.66267 58.4943 8.67867 58.4943C8.73553 58.4896 8.79207 58.4816 8.848 58.4703C11.5012 58.2817 14.1398 57.9255 16.748 57.4037C19.2425 56.8991 21.7018 56.2342 24.1107 55.413C24.132 55.413 24.1547 55.413 24.176 55.4037C24.1973 55.3943 24.2333 55.369 24.2653 55.357C29.3386 53.6181 34.1343 51.1558 38.504 48.0463C38.5476 48.0187 38.5895 47.9884 38.6293 47.9557C42.6044 45.1111 46.1865 41.7541 49.2827 37.9717C54.5493 31.537 69.5507 29.373 76 29.333C76.5363 29.3342 77.0198 29.6566 77.227 30.1513C77.4342 30.646 77.3248 31.2167 76.9493 31.5997Z" fill="url(#paint0_linear_47_467)"/>
<path d="M18.6667 0H13.3334C11.8606 0 10.6667 1.19391 10.6667 2.66667V24H7.80272C6.85141 24.0002 5.98497 24.5474 5.57601 25.4063C5.16705 26.2652 5.28847 27.2828 5.88806 28.0213L14.0534 37.7147C14.519 38.3174 15.2385 38.6693 16.0001 38.6667C16.7445 38.673 17.4505 38.3367 17.9147 37.7547L26.1454 27.9813C26.7241 27.2376 26.8284 26.2291 26.4142 25.3826C26 24.5361 25.1398 23.9996 24.1974 24H21.3334V2.66667C21.3334 1.19391 20.1395 0 18.6667 0V0ZM23.7667 26.6667L16.0001 35.8893L8.23206 26.6667H10.8667C12.2284 26.6652 13.3319 25.5617 13.3334 24.2V2.66667H18.6667V24.2C18.6682 25.5617 19.7717 26.6652 21.1334 26.6667H23.7667Z" fill="url(#paint1_linear_47_467)"/>
<path d="M65.948 42.2867C65.4673 41.7221 64.7656 41.3933 64.0241 41.3854C63.2826 41.3775 62.574 41.6911 62.0813 42.2454L53.8506 52.0187C53.2715 52.7631 53.1675 53.7725 53.5827 54.6193C53.9979 55.4661 54.8596 56.002 55.8027 56H58.6666V77.3334C58.6666 78.8061 59.8606 80 61.3333 80H66.6666C68.1394 80 69.3333 78.8061 69.3333 77.3334V56H72.1973C73.1491 56.001 74.0165 55.4539 74.4256 54.5945C74.8348 53.7351 74.7127 52.717 74.112 51.9787L65.948 42.2867ZM69.1333 53.3334C67.7716 53.3348 66.6681 54.4383 66.6666 55.8V77.3334H61.3333V55.8C61.3318 54.4383 60.2283 53.3348 58.8667 53.3334H56.2333L64 44.1107L71.768 53.3334H69.1333Z" fill="url(#paint2_linear_47_467)"/>
<defs>
<linearGradient id="paint0_linear_47_467" x1="40" y1="13.333" x2="40" y2="63.9997" gradientUnits="userSpaceOnUse">
<stop stop-color="#F39B14"/>
<stop offset="1" stop-color="#F36414"/>
</linearGradient>
<linearGradient id="paint1_linear_47_467" x1="16.0008" y1="0" x2="16.0008" y2="38.6668" gradientUnits="userSpaceOnUse">
<stop stop-color="#F39B14"/>
<stop offset="1" stop-color="#F36414"/>
</linearGradient>
<linearGradient id="paint2_linear_47_467" x1="63.9979" y1="41.3853" x2="63.9979" y2="80" gradientUnits="userSpaceOnUse">
<stop stop-color="#F39B14"/>
<stop offset="1" stop-color="#F36414"/>
</linearGradient>
</defs>
</svg>
