<svg width="80" height="80" viewBox="0 0 80 80" fill="none" xmlns="http://www.w3.org/2000/svg">
<g opacity="0.8" clip-path="url(#clip0_47_485)">
<path d="M21.6667 80.0003C17.3814 80.0003 13.1924 78.7296 9.62932 76.3488C6.06626 73.9681 3.28919 70.5842 1.64929 66.6251C0.00938783 62.6661 -0.419685 58.3096 0.416329 54.1067C1.25234 49.9038 3.31589 46.0432 6.34603 43.013C9.37617 39.9829 13.2368 37.9193 17.4397 37.0833C21.6426 36.2473 25.9991 36.6764 29.9582 38.3163C33.9172 39.9562 37.3011 42.7332 39.6819 46.2963C42.0626 49.8594 43.3333 54.0484 43.3333 58.3337C43.3333 64.08 41.0506 69.591 36.9873 73.6543C32.924 77.7176 27.413 80.0003 21.6667 80.0003ZM21.6667 40.0003C18.0407 40.0003 14.4961 41.0756 11.4812 43.0901C8.46632 45.1046 6.11649 47.9678 4.72889 51.3178C3.34128 54.6678 2.97822 58.354 3.68561 61.9103C4.39301 65.4666 6.13909 68.7333 8.70305 71.2973C11.267 73.8613 14.5337 75.6073 18.09 76.3147C21.6463 77.0221 25.3326 76.6591 28.6825 75.2715C32.0325 73.8839 34.8958 71.534 36.9103 68.5191C38.9248 65.5042 40 61.9597 40 58.3337C40 55.9261 39.5258 53.5421 38.6045 51.3178C37.6831 49.0935 36.3327 47.0724 34.6303 45.37C32.9279 43.6676 30.9068 42.3172 28.6825 41.3959C26.4582 40.4745 24.0742 40.0003 21.6667 40.0003Z" fill="url(#paint0_linear_47_485)"/>
<path d="M21.6667 73.3333C21.2246 73.3333 20.8007 73.1577 20.4882 72.8451C20.1756 72.5325 20 72.1086 20 71.6666C20 71.2246 20.1756 70.8006 20.4882 70.4881C20.8007 70.1755 21.2246 69.9999 21.6667 69.9999C24.5228 70.0226 27.2879 68.9967 29.4382 67.1168C31.5884 65.2369 32.9744 62.6335 33.3333 59.7999C33.3864 59.3579 33.6128 58.955 33.9629 58.68C34.313 58.4049 34.758 58.2802 35.2 58.3333C35.642 58.3863 36.0449 58.6128 36.3199 58.9628C36.595 59.3129 36.7197 59.7579 36.6667 60.1999C36.2094 63.8465 34.4294 67.1983 31.6643 69.6193C28.8993 72.0402 25.3417 73.3618 21.6667 73.3333Z" fill="url(#paint1_linear_47_485)"/>
<path d="M65 56.667C62.0333 56.667 59.1332 55.7873 56.6665 54.139C54.1997 52.4908 52.2771 50.1481 51.1418 47.4072C50.0065 44.6664 49.7094 41.6504 50.2882 38.7406C50.867 35.8309 52.2956 33.1582 54.3934 31.0604C56.4912 28.9626 59.1639 27.534 62.0737 26.9552C64.9834 26.3764 67.9994 26.6735 70.7403 27.8088C73.4811 28.9441 75.8238 30.8667 77.4721 33.3334C79.1203 35.8002 80 38.7003 80 41.667C80 45.6452 78.4197 49.4606 75.6066 52.2736C72.7936 55.0866 68.9783 56.667 65 56.667ZM65 30.0003C62.6926 30.0003 60.4369 30.6846 58.5184 31.9665C56.5998 33.2485 55.1044 35.0706 54.2214 37.2024C53.3384 39.3342 53.1074 41.6799 53.5575 43.9431C54.0077 46.2062 55.1188 48.285 56.7504 49.9166C58.382 51.5482 60.4608 52.6593 62.724 53.1095C64.9871 53.5597 67.3328 53.3286 69.4646 52.4456C71.5964 51.5626 73.4185 50.0672 74.7005 48.1487C75.9824 46.2301 76.6667 43.9744 76.6667 41.667C76.6667 38.5728 75.4375 35.6053 73.2496 33.4174C71.0617 31.2295 68.0942 30.0003 65 30.0003Z" fill="url(#paint2_linear_47_485)"/>
<path d="M73.3335 43.3336C72.8915 43.3336 72.4675 43.1581 72.155 42.8455C71.8424 42.5329 71.6668 42.109 71.6668 41.667C71.6668 39.8989 70.9644 38.2032 69.7142 36.9529C68.464 35.7027 66.7683 35.0003 65.0002 35.0003C64.5581 35.0003 64.1342 34.8247 63.8216 34.5122C63.5091 34.1996 63.3335 33.7757 63.3335 33.3337C63.3335 32.8916 63.5091 32.4677 63.8216 32.1551C64.1342 31.8426 64.5581 31.667 65.0002 31.667C74.2001 31.667 77.3501 43.3336 73.3335 43.3336Z" fill="url(#paint3_linear_47_485)"/>
<path d="M40.0002 23.3333C37.6927 23.3333 35.4371 22.6491 33.5185 21.3672C31.5999 20.0852 30.1046 18.2631 29.2216 16.1313C28.3386 13.9995 28.1075 11.6537 28.5577 9.39062C29.0078 7.12751 30.119 5.04871 31.7506 3.41709C33.3822 1.78548 35.461 0.674338 37.7241 0.224177C39.9872 -0.225984 42.333 0.00505507 44.4648 0.888077C46.5966 1.7711 48.4187 3.26645 49.7006 5.18502C50.9826 7.10359 51.6668 9.35922 51.6668 11.6667C51.6668 14.7609 50.4377 17.7283 48.2497 19.9163C46.0618 22.1042 43.0944 23.3333 40.0002 23.3333ZM40.0002 3.33334C38.352 3.33334 36.7408 3.82208 35.3704 4.73776C34 5.65344 32.9319 6.95493 32.3012 8.47764C31.6704 10.0004 31.5054 11.6759 31.827 13.2924C32.1485 14.9089 32.9422 16.3938 34.1076 17.5592C35.2731 18.7247 36.7579 19.5183 38.3744 19.8399C39.9909 20.1614 41.6665 19.9964 43.1892 19.3657C44.7119 18.7349 46.0134 17.6668 46.9291 16.2964C47.8448 14.926 48.3335 13.3149 48.3335 11.6667C48.3335 9.45654 47.4555 7.33692 45.8927 5.77412C44.3299 4.21131 42.2103 3.33334 40.0002 3.33334Z" fill="url(#paint4_linear_47_485)"/>
<path d="M35.0001 13.3333C31.5001 13.3333 33.6501 5 40.0001 5C40.4421 5 40.8661 5.17559 41.1786 5.48816C41.4912 5.80072 41.6668 6.22464 41.6668 6.66667C41.6668 7.10869 41.4912 7.53262 41.1786 7.84518C40.8661 8.15774 40.4421 8.33333 40.0001 8.33333C39.1161 8.33333 38.2682 8.68452 37.6431 9.30964C37.018 9.93477 36.6668 10.7826 36.6668 11.6667C36.6668 12.1087 36.4912 12.5326 36.1786 12.8452C35.8661 13.1577 35.4421 13.3333 35.0001 13.3333Z" fill="url(#paint5_linear_47_485)"/>
<path d="M13.3333 29.9997C11.6852 29.9997 10.074 29.5109 8.70358 28.5953C7.33318 27.6796 6.26507 26.3781 5.63434 24.8554C5.00361 23.3327 4.83858 21.6571 5.16013 20.0406C5.48167 18.4241 6.27534 16.9392 7.44078 15.7738C8.60622 14.6084 10.0911 13.8147 11.7076 13.4931C13.3241 13.1716 14.9996 13.3366 16.5224 13.9673C18.0451 14.5981 19.3466 15.6662 20.2622 17.0366C21.1779 18.407 21.6667 20.0182 21.6667 21.6663C21.6667 23.8765 20.7887 25.9961 19.2259 27.5589C17.6631 29.1217 15.5435 29.9997 13.3333 29.9997ZM13.3333 16.6663C12.3444 16.6663 11.3777 16.9596 10.5555 17.509C9.73324 18.0584 9.09238 18.8393 8.71394 19.7529C8.3355 20.6666 8.23648 21.6719 8.42941 22.6418C8.62234 23.6117 9.09854 24.5026 9.7978 25.2019C10.4971 25.9011 11.388 26.3773 12.3579 26.5703C13.3278 26.7632 14.3331 26.6642 15.2468 26.2857C16.1604 25.9073 16.9413 25.2664 17.4907 24.4442C18.0401 23.622 18.3333 22.6553 18.3333 21.6663C18.3333 20.3403 17.8066 19.0685 16.8689 18.1308C15.9312 17.1931 14.6594 16.6663 13.3333 16.6663Z" fill="url(#paint6_linear_47_485)"/>
</g>
<defs>
<linearGradient id="paint0_linear_47_485" x1="21.6667" y1="36.667" x2="21.6667" y2="80.0003" gradientUnits="userSpaceOnUse">
<stop stop-color="#F39B14"/>
<stop offset="1" stop-color="#F36414"/>
</linearGradient>
<linearGradient id="paint1_linear_47_485" x1="28.3393" y1="58.3213" x2="28.3393" y2="73.3337" gradientUnits="userSpaceOnUse">
<stop stop-color="#F39B14"/>
<stop offset="1" stop-color="#F36414"/>
</linearGradient>
<linearGradient id="paint2_linear_47_485" x1="65" y1="26.667" x2="65" y2="56.667" gradientUnits="userSpaceOnUse">
<stop stop-color="#F39B14"/>
<stop offset="1" stop-color="#F36414"/>
</linearGradient>
<linearGradient id="paint3_linear_47_485" x1="69.1904" y1="31.667" x2="69.1904" y2="43.3336" gradientUnits="userSpaceOnUse">
<stop stop-color="#F39B14"/>
<stop offset="1" stop-color="#F36414"/>
</linearGradient>
<linearGradient id="paint4_linear_47_485" x1="40.0002" y1="0" x2="40.0002" y2="23.3333" gradientUnits="userSpaceOnUse">
<stop stop-color="#F39B14"/>
<stop offset="1" stop-color="#F36414"/>
</linearGradient>
<linearGradient id="paint5_linear_47_485" x1="37.4975" y1="5" x2="37.4975" y2="13.3333" gradientUnits="userSpaceOnUse">
<stop stop-color="#F39B14"/>
<stop offset="1" stop-color="#F36414"/>
</linearGradient>
<linearGradient id="paint6_linear_47_485" x1="13.3333" y1="13.333" x2="13.3333" y2="29.9997" gradientUnits="userSpaceOnUse">
<stop stop-color="#F39B14"/>
<stop offset="1" stop-color="#F36414"/>
</linearGradient>
<clipPath id="clip0_47_485">
<rect width="80" height="80" fill="white"/>
</clipPath>
</defs>
</svg>
