<svg width="60" height="60" viewBox="0 0 60 60" fill="none" xmlns="http://www.w3.org/2000/svg">
<g clip-path="url(#clip0_47_474)">
<path d="M0.817878 31.7787C4.36725 34.8232 8.39007 38.274 16.1714 38.274C23.953 38.2739 27.9761 34.8232 31.5256 31.7787C34.8823 28.8997 37.7813 26.4131 43.8279 26.4131C49.8747 26.4131 52.7737 28.8997 56.1303 31.7787C57.1129 32.6214 58.5925 32.5082 59.4352 31.5257C60.2779 30.5431 60.1647 29.0635 59.1821 28.2208C55.6326 25.1764 51.6095 21.7256 43.8279 21.7256C36.0463 21.7256 32.0233 25.1763 28.4738 28.2208C25.1171 31.0999 22.2181 33.5865 16.1714 33.5865C10.1249 33.5865 7.22628 31.1 3.86979 28.2208C2.88729 27.3781 1.40768 27.4912 0.56487 28.4738C-0.277943 29.4563 -0.164622 30.9361 0.817878 31.7787Z" fill="url(#paint0_linear_47_474)"/>
<path d="M0.817878 18.9594C4.36714 22.0039 8.38995 25.4546 16.1714 25.4546C23.953 25.4546 27.9761 22.0039 31.5256 18.9594C34.8823 16.0804 37.7812 13.5937 43.8279 13.5937C49.8744 13.5937 52.7734 16.0802 56.1303 18.9594C57.1129 19.8023 58.5924 19.6888 59.4351 18.7062C60.2779 17.7237 60.1643 16.2438 59.1818 15.4012C55.6323 12.3567 51.6093 8.90625 43.8279 8.90625C36.0463 8.90625 32.0233 12.357 28.4738 15.4015C25.1171 18.2805 22.2181 20.7671 16.1714 20.7671C10.125 20.7671 7.22628 18.2807 3.86979 15.4015C2.88729 14.5587 1.40757 14.6719 0.56487 15.6545C-0.277943 16.637 -0.164622 18.1167 0.817878 18.9594Z" fill="url(#paint1_linear_47_474)"/>
<path d="M59.1819 41.0406C55.6325 37.9962 51.6094 34.5454 43.8278 34.5454C36.0462 34.5454 32.0232 37.9961 28.4737 41.0406C25.117 43.9197 22.218 46.4063 16.1713 46.4063C10.1252 46.4063 7.22629 43.9198 3.86981 41.0409L3.86958 41.0406C2.88708 40.1982 1.40758 40.3114 0.564772 41.2938C-0.277923 42.2763 -0.164603 43.756 0.817897 44.5987C4.36727 47.6432 8.3902 51.0938 16.1713 51.0938C23.9529 51.0938 27.976 47.6431 31.5255 44.5986C34.8822 41.7195 37.7812 39.2329 43.8278 39.2329C49.8746 39.2329 52.7736 41.7195 56.1302 44.5986C57.1128 45.4413 58.5924 45.3281 59.4351 44.3456C60.2778 43.363 60.1646 41.8833 59.1819 41.0406Z" fill="url(#paint2_linear_47_474)"/>
</g>
<defs>
<linearGradient id="paint0_linear_47_474" x1="30" y1="21.7256" x2="30" y2="38.274" gradientUnits="userSpaceOnUse">
<stop stop-color="#F39B14"/>
<stop offset="1" stop-color="#F36414"/>
</linearGradient>
<linearGradient id="paint1_linear_47_474" x1="29.9999" y1="8.90625" x2="29.9999" y2="25.4546" gradientUnits="userSpaceOnUse">
<stop stop-color="#F39B14"/>
<stop offset="1" stop-color="#F36414"/>
</linearGradient>
<linearGradient id="paint2_linear_47_474" x1="29.9999" y1="34.5454" x2="29.9999" y2="51.0938" gradientUnits="userSpaceOnUse">
<stop stop-color="#F39B14"/>
<stop offset="1" stop-color="#F36414"/>
</linearGradient>
<clipPath id="clip0_47_474">
<rect width="60" height="60" fill="white"/>
</clipPath>
</defs>
</svg>
