<svg width="64" height="80" viewBox="0 0 64 80" fill="none" xmlns="http://www.w3.org/2000/svg">
<path d="M62.9595 58.7932C62.2215 48.5336 58.6452 40.9834 52.3226 36.3223C54.6315 32.5753 55.8443 28.2935 55.8443 23.8443C55.8443 10.6966 45.1478 0 32 0C18.8521 0 8.15535 10.6966 8.15535 23.8443C8.15535 28.2937 9.36848 32.5753 11.6774 36.3223C5.3544 40.9834 1.77829 48.5336 1.04048 58.7932C0.613915 64.7276 2.01673 69.4768 5.21065 72.9086C7.73722 75.6234 11.2974 77.5003 16.0948 78.6464C19.9066 79.5572 24.5432 80 30.2687 80C30.8287 80 31.4114 79.9958 32 79.9875C32.589 79.9958 33.1712 80 33.7312 80C39.4561 80 44.0922 79.5572 47.9046 78.6462C52.7016 77.5 56.2618 75.6229 58.7887 72.9081C61.9829 69.4762 63.386 64.7273 62.9595 58.7932ZM56.5013 70.779C52.6308 74.9378 45.3953 76.8748 33.7314 76.875C33.179 76.875 32.604 76.8708 32.0223 76.8625C32.0147 76.8625 32.0073 76.8623 32 76.8623C31.9923 76.8623 31.985 76.8625 31.9776 76.8625C31.3959 76.8708 30.8211 76.875 30.2686 76.875C18.6038 76.875 11.3683 74.9381 7.49816 70.7797C4.88315 67.9696 3.79033 64.1223 4.15737 59.0174C4.86987 49.1082 8.40629 42.0561 14.6685 38.0572C15.0293 37.8269 15.2798 37.4587 15.3616 37.0386C15.443 36.6186 15.3491 36.1833 15.101 35.8345C12.6016 32.32 11.2802 28.1739 11.2802 23.8442C11.2805 12.4196 20.5751 3.12501 32 3.12501C43.4245 3.12501 52.7191 12.4196 52.7191 23.8443C52.7191 28.1739 51.398 32.3201 48.8986 35.8347C48.6508 36.1834 48.5566 36.6186 48.6383 37.0386C48.72 37.4587 48.9704 37.8267 49.3311 38.0572C55.593 42.0561 59.1298 49.1083 59.8424 59.0174C60.209 64.1218 59.1163 67.969 56.5013 70.779Z" fill="url(#paint0_linear_3206_3)"/>
<defs>
<linearGradient id="paint0_linear_3206_3" x1="32" y1="0" x2="32" y2="80" gradientUnits="userSpaceOnUse">
<stop stop-color="#F39B14"/>
<stop offset="1" stop-color="#F36414"/>
</linearGradient>
</defs>
</svg>
