<svg width="48" height="78" viewBox="0 0 48 78" fill="none" xmlns="http://www.w3.org/2000/svg">
<path d="M47.1964 65.3041C47.1961 64.7834 47.0742 64.2699 46.8403 63.8046C46.6064 63.3393 46.2671 62.9352 45.8493 62.6243C45.4315 62.3135 44.9468 62.1046 44.4339 62.0143C43.9211 61.924 43.3942 61.9548 42.8953 62.1042L38.1035 63.495C38.1431 62.9478 38.0485 62.3991 37.828 61.8967C37.6074 61.3944 37.2676 60.9534 36.8379 60.6122C37.6382 59.6485 38.0241 58.4069 37.911 57.1593C37.7979 55.9118 37.1952 54.7598 36.2346 53.9557C36.7604 53.1348 36.9469 52.1418 36.7549 51.1861L42.7533 49.4388C43.3943 49.2422 43.9557 48.8457 44.3553 48.3073C44.7549 47.7689 44.9719 47.1168 44.9745 46.4463V44.4143C44.9743 43.9266 44.86 43.4456 44.6409 43.0099C44.4218 42.5741 44.1038 42.1957 43.7124 41.9047C43.321 41.6137 42.8669 41.4182 42.3865 41.3339C41.9062 41.2495 41.4127 41.2787 40.9456 41.419L36.7971 42.6213C36.8151 41.9537 36.6179 41.298 36.2346 40.751C36.802 40.2755 37.2501 39.6736 37.5428 38.9937C37.8356 38.3137 37.9649 37.5746 37.9204 36.8357C37.8759 36.0967 37.6588 35.3785 37.2865 34.7386C36.9143 34.0987 36.3973 33.5549 35.7769 33.1509C36.0942 32.4643 36.194 31.6972 36.0631 30.9523L41.6396 29.3224C42.2606 29.1392 42.805 28.7588 43.1907 28.2387C43.5763 27.7186 43.7821 27.0871 43.7771 26.4396V24.5299C43.7776 24.0608 43.6684 23.598 43.4581 23.1787C43.2478 22.7593 42.9422 22.395 42.5659 22.1148C42.1896 21.8346 41.753 21.6464 41.2909 21.5652C40.8289 21.484 40.3542 21.512 39.9049 21.6471L36.0975 22.751C36.093 22.2939 35.9833 21.844 35.7769 21.4362C36.4494 20.9985 36.9996 20.3971 37.3759 19.6884C37.7522 18.9798 37.9423 18.1871 37.9282 17.3849C37.9141 16.5826 37.6964 15.7971 37.2955 15.1021C36.8946 14.407 36.3237 13.8253 35.6363 13.4114C35.8774 12.7949 35.9502 12.1254 35.8472 11.4715L41.1066 9.93656C41.7076 9.75704 42.2343 9.38788 42.6082 8.88426C42.982 8.38063 43.1829 7.76956 43.1808 7.14234V5.32758C43.1808 4.87167 43.0742 4.42209 42.8695 4.01473C42.6647 3.60738 42.3676 3.25355 42.0018 2.98151C41.6359 2.70946 41.2115 2.52675 40.7625 2.44796C40.3134 2.36917 39.8522 2.39649 39.4156 2.52773L35.869 3.55219C35.8458 2.79434 35.5289 2.07521 34.9851 1.54682C34.4414 1.01842 33.7135 0.722174 32.9553 0.720703H15.8693C15.1007 0.72157 14.3634 1.02507 13.8169 1.56552C13.2704 2.10597 12.9587 2.83989 12.9492 3.60844L9.24306 2.53477C8.80542 2.39876 8.34195 2.36754 7.89003 2.44362C7.43811 2.5197 7.0104 2.70096 6.64142 2.97277C6.27245 3.24457 5.97254 3.59931 5.76589 4.00836C5.55925 4.4174 5.45166 4.8693 5.45181 5.32758V7.14164C5.45037 7.7702 5.65227 8.38236 6.02738 8.88673C6.40248 9.39109 6.93067 9.7606 7.53306 9.94008L12.9696 11.5256C12.8809 12.1282 12.9423 12.7433 13.1482 13.3165C12.4603 13.6955 11.8774 14.2397 11.4522 14.9001C11.0269 15.5605 10.7727 16.3163 10.7123 17.0994C10.6519 17.8826 10.7872 18.6684 11.1062 19.3862C11.4251 20.104 11.9176 20.7311 12.5393 21.2112C12.2511 21.6776 12.0973 22.2147 12.0949 22.763V22.8066L8.10962 21.652C7.65974 21.5139 7.1837 21.4833 6.71983 21.5627C6.25596 21.6422 5.81723 21.8294 5.43895 22.1094C5.06067 22.3894 4.75342 22.7542 4.54194 23.1747C4.33045 23.5951 4.22063 24.0593 4.22134 24.5299V26.4424C4.21706 27.0905 4.42389 27.7223 4.81054 28.2424C5.19719 28.7625 5.74265 29.1426 6.36446 29.3252L12.1301 31.0127C11.9865 31.8239 12.1312 32.6597 12.5393 33.3752C12.0003 33.7906 11.5574 34.3175 11.2407 34.9198C10.9241 35.5222 10.7412 36.1857 10.7045 36.8652C10.6679 37.5447 10.7783 38.2241 11.0284 38.857C11.2784 39.4899 11.6621 40.0614 12.1533 40.5323C11.6426 41.1296 11.3784 41.8989 11.4143 42.6839L7.07181 41.4239C6.60405 41.281 6.10933 41.2497 5.62729 41.3324C5.14524 41.4152 4.68929 41.6097 4.29598 41.9004C3.90266 42.1911 3.58292 42.57 3.36238 43.0065C3.14185 43.4431 3.02665 43.9252 3.02602 44.4143V46.4463C3.02911 47.1183 3.24721 47.7717 3.64841 48.3108C4.0496 48.8499 4.61282 49.2464 5.25563 49.4423L11.4516 51.2459C11.3478 51.7556 11.357 52.2819 11.4785 52.7877C11.6 53.2936 11.8308 53.7666 12.1547 54.1737C11.3208 54.9723 10.8085 56.0489 10.7148 57.1997C10.6211 58.3506 10.9525 59.4958 11.6463 60.4188C11.1362 60.7598 10.7267 61.231 10.4602 61.7837C10.1938 62.3364 10.0801 62.9504 10.1311 63.5618L5.12063 62.1091C4.62114 61.9566 4.09286 61.9233 3.57816 62.0118C3.06346 62.1004 2.57668 62.3083 2.15685 62.6189C1.73703 62.9296 1.39585 63.3343 1.1607 63.8006C0.925537 64.2669 0.80294 64.7819 0.80274 65.3041V67.5682C0.801378 68.2864 1.03206 68.9859 1.46043 69.5623C1.88881 70.1388 2.49194 70.5615 3.18001 70.7674L10.1803 72.8065C10.1358 73.1823 10.1194 73.5609 10.1311 73.9392C10.1322 74.8247 10.4845 75.6735 11.1106 76.2996C11.7367 76.9257 12.5855 77.2779 13.471 77.2791H34.7637C36.7092 77.2791 38.4382 75.7617 38.0494 72.7397L44.8395 70.7611C45.5233 70.5526 46.1218 70.1294 46.5463 69.5542C46.9708 68.979 47.1987 68.2824 47.1964 67.5675V65.3041ZM15.4397 59.8704C15.1396 59.8699 14.8425 59.8104 14.5655 59.6951C14.2884 59.5798 14.0367 59.4111 13.8249 59.1986C13.397 58.7694 13.1571 58.1878 13.1581 57.5817C13.159 56.9757 13.4006 56.3948 13.8299 55.9669C14.2591 55.539 14.8407 55.2991 15.4467 55.3001H33.1852C33.4853 55.2996 33.7825 55.3583 34.0599 55.4727C34.3374 55.5871 34.5895 55.755 34.8021 55.9669C35.0146 56.1788 35.1833 56.4304 35.2986 56.7075C35.4138 56.9846 35.4734 57.2816 35.4739 57.5817C35.4743 57.8818 35.4157 58.1791 35.3013 58.4565C35.1868 58.7339 35.0189 58.9861 34.807 59.1986C34.5952 59.4111 34.3435 59.5798 34.0664 59.6951C33.7894 59.8104 33.4923 59.8699 33.1922 59.8704H15.4397ZM41.6487 43.7766C41.7485 43.7465 41.8539 43.7401 41.9566 43.7579C42.0592 43.7757 42.1563 43.8172 42.2402 43.8791C42.324 43.941 42.3922 44.0217 42.4394 44.1146C42.4866 44.2075 42.5115 44.3101 42.5121 44.4143V46.4463C42.5127 46.5865 42.4689 46.7233 42.3869 46.837C42.3049 46.9506 42.189 47.0354 42.0558 47.0791L35.9231 48.8665C35.0189 47.4848 35.3494 46.6369 35.7474 46.054C35.8969 45.8351 36.0326 45.6071 36.1538 45.3712L41.6487 43.7766ZM13.1616 37.1208C13.1623 36.5149 13.4033 35.9341 13.8317 35.5058C14.2601 35.0774 14.8409 34.8364 15.4467 34.8356H33.1852C33.7912 34.8356 34.3725 35.0764 34.801 35.5049C35.2296 35.9335 35.4703 36.5147 35.4703 37.1208C35.4703 37.7268 35.2296 38.3081 34.801 38.7366C34.3725 39.1652 33.7912 39.4059 33.1852 39.4059H15.4467C14.8409 39.4052 14.2601 39.1642 13.8317 38.7358C13.4033 38.3074 13.1623 37.7266 13.1616 37.1208ZM40.6109 24.0047C40.6929 23.9794 40.7797 23.9738 40.8642 23.9883C40.9488 24.0028 41.0287 24.037 41.0976 24.0881C41.1665 24.1393 41.2224 24.2059 41.2607 24.2827C41.299 24.3594 41.3187 24.4441 41.3182 24.5299V26.4424C41.3203 26.5578 41.2851 26.6707 41.2178 26.7645C41.1506 26.8582 41.0548 26.9278 40.9449 26.9627L35.2411 28.6298C34.2075 27.0127 35.0126 26.3559 35.4689 25.4946L40.6109 24.0047ZM13.1616 17.4656C13.1623 16.8598 13.4033 16.279 13.8317 15.8506C14.2601 15.4222 14.8409 15.1812 15.4467 15.1805H33.1852C33.7912 15.1805 34.3725 15.4212 34.801 15.8498C35.2296 16.2783 35.4703 16.8596 35.4703 17.4656C35.4703 18.0717 35.2296 18.6529 34.801 19.0815C34.3725 19.51 33.7912 19.7508 33.1852 19.7508H15.4467C14.8409 19.75 14.2601 19.509 13.8317 19.0807C13.4033 18.6523 13.1623 18.0715 13.1616 17.4656ZM40.1215 4.88531C40.1907 4.86395 40.264 4.85915 40.3354 4.87129C40.4068 4.88342 40.4744 4.91216 40.5327 4.95519C40.591 4.99822 40.6384 5.05433 40.671 5.11901C40.7036 5.18369 40.7206 5.25513 40.7206 5.32758V7.14164C40.7211 7.23853 40.6907 7.33306 40.6338 7.41147C40.5769 7.48989 40.4965 7.54808 40.4042 7.57758L35.0274 9.14695C34.1084 7.67602 34.8221 7.10789 35.258 6.29086L40.1215 4.88531ZM15.4031 3.6443C15.4033 3.52153 15.4522 3.40385 15.5391 3.31711C15.626 3.23036 15.7437 3.18164 15.8665 3.18164H32.9524C33.0751 3.18183 33.1927 3.23063 33.2794 3.31735C33.3661 3.40408 33.4149 3.52165 33.4151 3.6443C33.4634 4.29547 33.2765 4.94237 32.8885 5.4675V5.47172C32.1277 6.58477 31.5406 8.38688 33.0635 10.6523C33.4474 11.2233 33.702 12.7195 32.9553 12.7195H15.8693C15.124 12.7195 15.3771 11.2191 15.761 10.6516C17.284 8.38547 16.6969 6.58406 15.9319 5.4668C15.5421 4.94268 15.3544 4.29562 15.4031 3.6443ZM7.91274 7.14164V5.32758C7.913 5.25347 7.93099 5.1805 7.96523 5.11478C7.99946 5.04905 8.04895 4.99248 8.10953 4.9498C8.17011 4.90712 8.24003 4.87956 8.31344 4.86945C8.38686 4.85933 8.46163 4.86694 8.53149 4.89164L13.6024 6.36117C14.0848 7.23164 14.686 7.75828 13.7649 9.19477L8.23689 7.5825C8.1427 7.55353 8.06034 7.49502 8.00196 7.41563C7.94359 7.33624 7.91231 7.24018 7.91274 7.14164ZM6.68227 26.4424V24.5299C6.68167 24.4424 6.7021 24.356 6.74186 24.278C6.78161 24.2 6.83953 24.1327 6.91072 24.0818C6.98191 24.0309 7.0643 23.9978 7.15095 23.9853C7.23759 23.9729 7.32596 23.9815 7.4086 24.0103L12.7692 25.5614C13.2249 26.3953 13.9934 27.0591 12.9274 28.6826L7.06196 26.9648C6.95065 26.9306 6.85346 26.8612 6.78499 26.767C6.71652 26.6728 6.68048 26.5589 6.68227 26.4424ZM15.1092 32.3747C14.2423 32.3747 14.5221 30.7273 14.9433 30.0994C16.526 27.7446 15.9171 25.8757 15.124 24.7162C14.7075 24.1538 14.5078 23.4601 14.5615 22.7623C14.5619 22.6164 14.62 22.4765 14.7232 22.3734C14.8263 22.2702 14.9661 22.2121 15.112 22.2117H33.0896C33.2355 22.2121 33.3753 22.2702 33.4784 22.3734C33.5816 22.4765 33.6397 22.6164 33.6401 22.7623C33.7 23.4609 33.4996 24.157 33.0776 24.717L33.0741 24.7219C32.2845 25.8764 31.6763 27.7453 33.2597 30.1008C33.6816 30.7287 33.9628 32.3747 33.0924 32.3747H15.1092ZM5.48696 46.4463V44.4143C5.48716 44.3084 5.51252 44.204 5.56095 44.1098C5.60939 44.0156 5.67951 43.9342 5.76554 43.8724C5.85157 43.8107 5.95106 43.7702 6.0558 43.7544C6.16054 43.7386 6.26753 43.7478 6.36798 43.7815L12.102 45.4458C12.5942 46.3542 13.4688 47.1129 12.2567 48.9171L5.95384 47.0812C5.81851 47.039 5.70023 46.9546 5.61624 46.8404C5.53226 46.7262 5.48696 46.5881 5.48696 46.4463ZM14.539 52.8398C14.3627 52.8397 14.1937 52.7695 14.0691 52.6448C13.9445 52.5201 13.8745 52.351 13.8745 52.1747V51.7971C13.8649 51.2668 14.0116 50.7455 14.2964 50.298C15.9565 47.8301 15.3195 45.8684 14.4898 44.659C14.0356 44.0476 13.8171 43.2929 13.8745 42.5334C13.8747 42.3573 13.9448 42.1884 14.0694 42.0638C14.1939 41.9392 14.3628 41.8692 14.539 41.869H33.6731C33.8494 41.8692 34.0183 41.9392 34.143 42.0638C34.2677 42.1883 34.3379 42.3572 34.3383 42.5334C34.4014 43.2936 34.1821 44.0503 33.7224 44.659V44.6646C32.8962 45.8726 32.2599 47.8287 33.9192 50.298C34.2035 50.7457 34.3502 51.2669 34.3411 51.7971C34.3207 51.8674 34.4965 52.8419 33.676 52.8419L14.539 52.8398ZM3.89087 68.4105C3.70995 68.3558 3.55154 68.2441 3.43917 68.092C3.32681 67.94 3.2665 67.7558 3.2672 67.5668V65.3027C3.26758 65.1638 3.30081 65.0268 3.36417 64.9032C3.42753 64.7795 3.51922 64.6725 3.63178 64.591C3.74434 64.5095 3.87457 64.4558 4.01185 64.4342C4.14913 64.4126 4.28958 64.4237 4.42173 64.4667L10.8511 66.33C11.5999 67.7475 12.4071 68.2931 11.0002 70.4784L3.89087 68.4105ZM34.7658 74.8188H13.4724C13.2393 74.8186 13.0159 74.726 12.8511 74.5612C12.6863 74.3964 12.5936 74.173 12.5934 73.9399C12.5305 73.1837 12.7023 72.4264 13.0856 71.7715C14.8892 69.0905 14.2008 66.967 13.3015 65.6543C12.5175 64.5237 12.1062 62.3334 13.471 62.3334H34.7623C36.1116 62.3334 35.7326 64.4998 34.9317 65.6543L34.9275 65.6606C34.0317 66.9691 33.3441 69.0926 35.1469 71.7736C35.7839 72.7158 36.0096 74.8188 34.7637 74.8188H34.7658ZM44.7354 67.5682C44.7368 67.7538 44.679 67.9349 44.5704 68.0854C44.4618 68.2359 44.308 68.3478 44.1314 68.4049L37.2049 70.4236C37.1993 70.4159 37.1958 70.4067 37.1909 70.3983C35.7143 68.2059 36.8984 67.3003 37.4342 66.2498L43.5978 64.4618C43.7295 64.4217 43.8688 64.413 44.0046 64.4365C44.1403 64.4599 44.2686 64.5149 44.3792 64.597C44.4899 64.679 44.5797 64.7859 44.6416 64.9089C44.7034 65.032 44.7356 65.1678 44.7354 65.3055V67.5682Z" fill="url(#paint0_linear_3206_2)"/>
<defs>
<linearGradient id="paint0_linear_3206_2" x1="23.9996" y1="0.720703" x2="23.9996" y2="77.2791" gradientUnits="userSpaceOnUse">
<stop stop-color="#F39B14"/>
<stop offset="1" stop-color="#F36414"/>
</linearGradient>
</defs>
</svg>
