<svg width="80" height="80" viewBox="0 0 80 80" fill="none" xmlns="http://www.w3.org/2000/svg">
<g clip-path="url(#clip0_47_508)">
<path d="M64.5774 16.524C63.8453 15.3659 62.5702 14.6645 61.2 14.6667H57.3333C56.5969 14.6667 56 15.2635 56 15.9999C56 16.7363 56.5969 17.3332 57.3333 17.3332H61.2C61.6555 17.3365 62.0785 17.5692 62.3253 17.9518L76.2467 39.9998H3.75331L17.6706 17.9571C17.9174 17.5715 18.3422 17.3368 18.8 17.3331H22.6667C23.4031 17.3331 24 16.736 24 15.9998C24 15.2634 23.403 14.6665 22.6667 14.6665H18.8C17.4272 14.6673 16.1508 15.372 15.4186 16.5332L1.03737 39.3067C0.356743 40.3738 -0.00341312 41.6142 2.43788e-05 42.8799V57.3332C2.43788e-05 59.5423 1.79096 61.3332 4.00002 61.3332H76C78.2091 61.3332 80 59.5423 80 57.3332V42.8799C80.0039 41.6173 79.6456 40.3799 78.968 39.3146L64.5774 16.524ZM76 58.6667H4.00002C3.26362 58.6667 2.66674 58.0698 2.66674 57.3334V48.0001H9.33346C10.0699 48.0001 10.6667 47.4032 10.6667 46.6668C10.6667 45.9304 10.0697 45.3335 9.33346 45.3335H2.66674V42.8803C2.66674 42.8082 2.67737 42.7388 2.68143 42.667H77.3188C77.3188 42.739 77.3335 42.8084 77.3335 42.8803V45.3335H16C15.2636 45.3335 14.6667 45.9306 14.6667 46.6668C14.6667 47.4031 15.2638 48.0001 16 48.0001H77.3333V57.3334C77.3335 58.0696 76.7364 58.6667 76 58.6667Z" fill="url(#paint0_linear_47_508)"/>
<path d="M22.6668 22.6666C23.4031 22.6666 24.0001 22.0696 24.0001 21.3333C24.0001 20.5969 23.4031 20 22.6668 20C21.9304 20 21.3335 20.5969 21.3335 21.3333C21.3335 22.0696 21.9304 22.6666 22.6668 22.6666Z" fill="url(#paint1_linear_47_508)"/>
<path d="M34.6668 22.6666C35.4031 22.6666 36.0001 22.0696 36.0001 21.3333C36.0001 20.5969 35.4031 20 34.6668 20C33.9304 20 33.3335 20.5969 33.3335 21.3333C33.3335 22.0696 33.9304 22.6666 34.6668 22.6666Z" fill="url(#paint2_linear_47_508)"/>
<path d="M33.3333 29.3331C34.0696 29.3331 34.6666 28.7361 34.6666 27.9998C34.6666 27.2634 34.0696 26.6665 33.3333 26.6665C32.5969 26.6665 32 27.2634 32 27.9998C32 28.7361 32.5969 29.3331 33.3333 29.3331Z" fill="url(#paint3_linear_47_508)"/>
<path d="M32 36.0001C32.7364 36.0001 33.3333 35.4031 33.3333 34.6668C33.3333 33.9304 32.7364 33.3335 32 33.3335C31.2637 33.3335 30.6667 33.9304 30.6667 34.6668C30.6667 35.4031 31.2637 36.0001 32 36.0001Z" fill="url(#paint4_linear_47_508)"/>
<path d="M20 29.3331C20.7364 29.3331 21.3333 28.7361 21.3333 27.9998C21.3333 27.2634 20.7364 26.6665 20 26.6665C19.2637 26.6665 18.6667 27.2634 18.6667 27.9998C18.6667 28.7361 19.2637 29.3331 20 29.3331Z" fill="url(#paint5_linear_47_508)"/>
<path d="M17.3333 36.0001C18.0696 36.0001 18.6666 35.4031 18.6666 34.6668C18.6666 33.9304 18.0696 33.3335 17.3333 33.3335C16.5969 33.3335 16 33.9304 16 34.6668C16 35.4031 16.5969 36.0001 17.3333 36.0001Z" fill="url(#paint6_linear_47_508)"/>
<path d="M13.3333 66.6666C14.0696 66.6666 14.6666 66.0696 14.6666 65.3333C14.6666 64.5969 14.0696 64 13.3333 64C12.5969 64 12 64.5969 12 65.3333C12 66.0696 12.5969 66.6666 13.3333 66.6666Z" fill="url(#paint7_linear_47_508)"/>
<path d="M13.3333 72.0001C14.0696 72.0001 14.6666 71.4031 14.6666 70.6668C14.6666 69.9304 14.0696 69.3335 13.3333 69.3335C12.5969 69.3335 12 69.9304 12 70.6668C12 71.4031 12.5969 72.0001 13.3333 72.0001Z" fill="url(#paint8_linear_47_508)"/>
<path d="M13.3333 77.3331C14.0696 77.3331 14.6666 76.7361 14.6666 75.9998C14.6666 75.2634 14.0696 74.6665 13.3333 74.6665C12.5969 74.6665 12 75.2634 12 75.9998C12 76.7361 12.5969 77.3331 13.3333 77.3331Z" fill="url(#paint9_linear_47_508)"/>
<path d="M26.6668 66.6666C27.4031 66.6666 28.0001 66.0696 28.0001 65.3333C28.0001 64.5969 27.4031 64 26.6668 64C25.9304 64 25.3335 64.5969 25.3335 65.3333C25.3335 66.0696 25.9304 66.6666 26.6668 66.6666Z" fill="url(#paint10_linear_47_508)"/>
<path d="M26.6668 72.0001C27.4031 72.0001 28.0001 71.4031 28.0001 70.6668C28.0001 69.9304 27.4031 69.3335 26.6668 69.3335C25.9304 69.3335 25.3335 69.9304 25.3335 70.6668C25.3335 71.4031 25.9304 72.0001 26.6668 72.0001Z" fill="url(#paint11_linear_47_508)"/>
<path d="M26.6668 77.3331C27.4031 77.3331 28.0001 76.7361 28.0001 75.9998C28.0001 75.2634 27.4031 74.6665 26.6668 74.6665C25.9304 74.6665 25.3335 75.2634 25.3335 75.9998C25.3335 76.7361 25.9304 77.3331 26.6668 77.3331Z" fill="url(#paint12_linear_47_508)"/>
<path d="M40 66.6666C40.7364 66.6666 41.3333 66.0696 41.3333 65.3333C41.3333 64.5969 40.7364 64 40 64C39.2637 64 38.6667 64.5969 38.6667 65.3333C38.6667 66.0696 39.2637 66.6666 40 66.6666Z" fill="url(#paint13_linear_47_508)"/>
<path d="M40 72.0001C40.7364 72.0001 41.3333 71.4031 41.3333 70.6668C41.3333 69.9304 40.7364 69.3335 40 69.3335C39.2637 69.3335 38.6667 69.9304 38.6667 70.6668C38.6667 71.4031 39.2637 72.0001 40 72.0001Z" fill="url(#paint14_linear_47_508)"/>
<path d="M40 77.3331C40.7364 77.3331 41.3333 76.7361 41.3333 75.9998C41.3333 75.2634 40.7364 74.6665 40 74.6665C39.2637 74.6665 38.6667 75.2634 38.6667 75.9998C38.6667 76.7361 39.2637 77.3331 40 77.3331Z" fill="url(#paint15_linear_47_508)"/>
<path d="M53.3333 66.6666C54.0696 66.6666 54.6666 66.0696 54.6666 65.3333C54.6666 64.5969 54.0696 64 53.3333 64C52.5969 64 52 64.5969 52 65.3333C52 66.0696 52.5969 66.6666 53.3333 66.6666Z" fill="url(#paint16_linear_47_508)"/>
<path d="M53.3333 72.0001C54.0696 72.0001 54.6666 71.4031 54.6666 70.6668C54.6666 69.9304 54.0696 69.3335 53.3333 69.3335C52.5969 69.3335 52 69.9304 52 70.6668C52 71.4031 52.5969 72.0001 53.3333 72.0001Z" fill="url(#paint17_linear_47_508)"/>
<path d="M53.3333 77.3331C54.0696 77.3331 54.6666 76.7361 54.6666 75.9998C54.6666 75.2634 54.0696 74.6665 53.3333 74.6665C52.5969 74.6665 52 75.2634 52 75.9998C52 76.7361 52.5969 77.3331 53.3333 77.3331Z" fill="url(#paint18_linear_47_508)"/>
<path d="M66.6668 66.6666C67.4031 66.6666 68.0001 66.0696 68.0001 65.3333C68.0001 64.5969 67.4031 64 66.6668 64C65.9304 64 65.3335 64.5969 65.3335 65.3333C65.3335 66.0696 65.9304 66.6666 66.6668 66.6666Z" fill="url(#paint19_linear_47_508)"/>
<path d="M66.6668 72.0001C67.4031 72.0001 68.0001 71.4031 68.0001 70.6668C68.0001 69.9304 67.4031 69.3335 66.6668 69.3335C65.9304 69.3335 65.3335 69.9304 65.3335 70.6668C65.3335 71.4031 65.9304 72.0001 66.6668 72.0001Z" fill="url(#paint20_linear_47_508)"/>
<path d="M66.6668 77.3331C67.4031 77.3331 68.0001 76.7361 68.0001 75.9998C68.0001 75.2634 67.4031 74.6665 66.6668 74.6665C65.9304 74.6665 65.3335 75.2634 65.3335 75.9998C65.3335 76.7361 65.9304 77.3331 66.6668 77.3331Z" fill="url(#paint21_linear_47_508)"/>
<path d="M57.3335 22.6666C58.0699 22.6666 58.6668 22.0696 58.6668 21.3333C58.6668 20.5969 58.0699 20 57.3335 20C56.5972 20 56.0002 20.5969 56.0002 21.3333C56.0002 22.0696 56.5972 22.6666 57.3335 22.6666Z" fill="url(#paint22_linear_47_508)"/>
<path d="M45.3335 22.6666C46.0699 22.6666 46.6668 22.0696 46.6668 21.3333C46.6668 20.5969 46.0699 20 45.3335 20C44.5972 20 44.0002 20.5969 44.0002 21.3333C44.0002 22.0696 44.5972 22.6666 45.3335 22.6666Z" fill="url(#paint23_linear_47_508)"/>
<path d="M46.6668 29.3331C47.4031 29.3331 48.0001 28.7361 48.0001 27.9998C48.0001 27.2634 47.4031 26.6665 46.6668 26.6665C45.9304 26.6665 45.3335 27.2634 45.3335 27.9998C45.3335 28.7361 45.9304 29.3331 46.6668 29.3331Z" fill="url(#paint24_linear_47_508)"/>
<path d="M48 36.0001C48.7364 36.0001 49.3333 35.4031 49.3333 34.6668C49.3333 33.9304 48.7364 33.3335 48 33.3335C47.2637 33.3335 46.6667 33.9304 46.6667 34.6668C46.6667 35.4031 47.2637 36.0001 48 36.0001Z" fill="url(#paint25_linear_47_508)"/>
<path d="M60 29.3331C60.7364 29.3331 61.3333 28.7361 61.3333 27.9998C61.3333 27.2634 60.7364 26.6665 60 26.6665C59.2637 26.6665 58.6667 27.2634 58.6667 27.9998C58.6667 28.7361 59.2637 29.3331 60 29.3331Z" fill="url(#paint26_linear_47_508)"/>
<path d="M62.6668 36.0001C63.4031 36.0001 64.0001 35.4031 64.0001 34.6668C64.0001 33.9304 63.4031 33.3335 62.6668 33.3335C61.9304 33.3335 61.3335 33.9304 61.3335 34.6668C61.3335 35.4031 61.9304 36.0001 62.6668 36.0001Z" fill="url(#paint27_linear_47_508)"/>
<path fill-rule="evenodd" clip-rule="evenodd" d="M24.9427 8.9425L26.6668 7.21844V27.9998C26.6668 28.7362 27.2638 29.3331 28.0001 29.3331C28.7363 29.3331 29.3334 28.7361 29.3334 27.9998V7.21859L31.0574 8.94266C31.5805 9.44797 32.4123 9.44078 32.9265 8.92641C33.4409 8.41203 33.448 7.58047 32.9427 7.05734L28.9427 3.05734C28.4221 2.53687 27.578 2.53687 27.0574 3.05734L23.0574 7.05734C22.5521 7.58047 22.5593 8.41219 23.0737 8.92641C23.588 9.44063 24.4196 9.44781 24.9427 8.9425Z" fill="url(#paint28_linear_47_508)"/>
<path fill-rule="evenodd" clip-rule="evenodd" d="M36.9427 8.9425L38.6668 7.21844V27.9998C38.6668 28.7362 39.2638 29.3331 40.0001 29.3331C40.7365 29.3331 41.3334 28.7361 41.3334 27.9998V7.21859L43.0574 8.94266C43.5805 9.44797 44.4123 9.44078 44.9265 8.92641C45.4409 8.41203 45.4481 7.58047 44.9427 7.05734L40.9427 3.05734C40.4221 2.53687 39.578 2.53687 39.0574 3.05734L35.0574 7.05734C34.5521 7.58047 34.5593 8.41219 35.0737 8.92641C35.588 9.44063 36.4196 9.44781 36.9427 8.9425Z" fill="url(#paint29_linear_47_508)"/>
<path fill-rule="evenodd" clip-rule="evenodd" d="M48.9427 8.9425L50.6668 7.21844V27.9998C50.6668 28.7362 51.2637 29.3331 52.0001 29.3331C52.7365 29.3331 53.3334 28.7361 53.3334 27.9998V7.21859L55.0574 8.94266C55.5805 9.44797 56.4123 9.44078 56.9265 8.92641C57.4409 8.41203 57.448 7.58047 56.9427 7.05734L52.9427 3.05734C52.4221 2.53687 51.578 2.53687 51.0574 3.05734L47.0574 7.05734C46.5521 7.58047 46.5593 8.41219 47.0737 8.92641C47.588 9.44063 48.4196 9.44781 48.9427 8.9425Z" fill="url(#paint30_linear_47_508)"/>
</g>
<defs>
<linearGradient id="paint0_linear_47_508" x1="40" y1="14.6665" x2="40" y2="61.3332" gradientUnits="userSpaceOnUse">
<stop stop-color="#F39B14"/>
<stop offset="1" stop-color="#F36414"/>
</linearGradient>
<linearGradient id="paint1_linear_47_508" x1="22.6668" y1="20" x2="22.6668" y2="22.6666" gradientUnits="userSpaceOnUse">
<stop stop-color="#F39B14"/>
<stop offset="1" stop-color="#F36414"/>
</linearGradient>
<linearGradient id="paint2_linear_47_508" x1="34.6668" y1="20" x2="34.6668" y2="22.6666" gradientUnits="userSpaceOnUse">
<stop stop-color="#F39B14"/>
<stop offset="1" stop-color="#F36414"/>
</linearGradient>
<linearGradient id="paint3_linear_47_508" x1="33.3333" y1="26.6665" x2="33.3333" y2="29.3331" gradientUnits="userSpaceOnUse">
<stop stop-color="#F39B14"/>
<stop offset="1" stop-color="#F36414"/>
</linearGradient>
<linearGradient id="paint4_linear_47_508" x1="32" y1="33.3335" x2="32" y2="36.0001" gradientUnits="userSpaceOnUse">
<stop stop-color="#F39B14"/>
<stop offset="1" stop-color="#F36414"/>
</linearGradient>
<linearGradient id="paint5_linear_47_508" x1="20" y1="26.6665" x2="20" y2="29.3331" gradientUnits="userSpaceOnUse">
<stop stop-color="#F39B14"/>
<stop offset="1" stop-color="#F36414"/>
</linearGradient>
<linearGradient id="paint6_linear_47_508" x1="17.3333" y1="33.3335" x2="17.3333" y2="36.0001" gradientUnits="userSpaceOnUse">
<stop stop-color="#F39B14"/>
<stop offset="1" stop-color="#F36414"/>
</linearGradient>
<linearGradient id="paint7_linear_47_508" x1="13.3333" y1="64" x2="13.3333" y2="66.6666" gradientUnits="userSpaceOnUse">
<stop stop-color="#F39B14"/>
<stop offset="1" stop-color="#F36414"/>
</linearGradient>
<linearGradient id="paint8_linear_47_508" x1="13.3333" y1="69.3335" x2="13.3333" y2="72.0001" gradientUnits="userSpaceOnUse">
<stop stop-color="#F39B14"/>
<stop offset="1" stop-color="#F36414"/>
</linearGradient>
<linearGradient id="paint9_linear_47_508" x1="13.3333" y1="74.6665" x2="13.3333" y2="77.3331" gradientUnits="userSpaceOnUse">
<stop stop-color="#F39B14"/>
<stop offset="1" stop-color="#F36414"/>
</linearGradient>
<linearGradient id="paint10_linear_47_508" x1="26.6668" y1="64" x2="26.6668" y2="66.6666" gradientUnits="userSpaceOnUse">
<stop stop-color="#F39B14"/>
<stop offset="1" stop-color="#F36414"/>
</linearGradient>
<linearGradient id="paint11_linear_47_508" x1="26.6668" y1="69.3335" x2="26.6668" y2="72.0001" gradientUnits="userSpaceOnUse">
<stop stop-color="#F39B14"/>
<stop offset="1" stop-color="#F36414"/>
</linearGradient>
<linearGradient id="paint12_linear_47_508" x1="26.6668" y1="74.6665" x2="26.6668" y2="77.3331" gradientUnits="userSpaceOnUse">
<stop stop-color="#F39B14"/>
<stop offset="1" stop-color="#F36414"/>
</linearGradient>
<linearGradient id="paint13_linear_47_508" x1="40" y1="64" x2="40" y2="66.6666" gradientUnits="userSpaceOnUse">
<stop stop-color="#F39B14"/>
<stop offset="1" stop-color="#F36414"/>
</linearGradient>
<linearGradient id="paint14_linear_47_508" x1="40" y1="69.3335" x2="40" y2="72.0001" gradientUnits="userSpaceOnUse">
<stop stop-color="#F39B14"/>
<stop offset="1" stop-color="#F36414"/>
</linearGradient>
<linearGradient id="paint15_linear_47_508" x1="40" y1="74.6665" x2="40" y2="77.3331" gradientUnits="userSpaceOnUse">
<stop stop-color="#F39B14"/>
<stop offset="1" stop-color="#F36414"/>
</linearGradient>
<linearGradient id="paint16_linear_47_508" x1="53.3333" y1="64" x2="53.3333" y2="66.6666" gradientUnits="userSpaceOnUse">
<stop stop-color="#F39B14"/>
<stop offset="1" stop-color="#F36414"/>
</linearGradient>
<linearGradient id="paint17_linear_47_508" x1="53.3333" y1="69.3335" x2="53.3333" y2="72.0001" gradientUnits="userSpaceOnUse">
<stop stop-color="#F39B14"/>
<stop offset="1" stop-color="#F36414"/>
</linearGradient>
<linearGradient id="paint18_linear_47_508" x1="53.3333" y1="74.6665" x2="53.3333" y2="77.3331" gradientUnits="userSpaceOnUse">
<stop stop-color="#F39B14"/>
<stop offset="1" stop-color="#F36414"/>
</linearGradient>
<linearGradient id="paint19_linear_47_508" x1="66.6668" y1="64" x2="66.6668" y2="66.6666" gradientUnits="userSpaceOnUse">
<stop stop-color="#F39B14"/>
<stop offset="1" stop-color="#F36414"/>
</linearGradient>
<linearGradient id="paint20_linear_47_508" x1="66.6668" y1="69.3335" x2="66.6668" y2="72.0001" gradientUnits="userSpaceOnUse">
<stop stop-color="#F39B14"/>
<stop offset="1" stop-color="#F36414"/>
</linearGradient>
<linearGradient id="paint21_linear_47_508" x1="66.6668" y1="74.6665" x2="66.6668" y2="77.3331" gradientUnits="userSpaceOnUse">
<stop stop-color="#F39B14"/>
<stop offset="1" stop-color="#F36414"/>
</linearGradient>
<linearGradient id="paint22_linear_47_508" x1="57.3335" y1="20" x2="57.3335" y2="22.6666" gradientUnits="userSpaceOnUse">
<stop stop-color="#F39B14"/>
<stop offset="1" stop-color="#F36414"/>
</linearGradient>
<linearGradient id="paint23_linear_47_508" x1="45.3335" y1="20" x2="45.3335" y2="22.6666" gradientUnits="userSpaceOnUse">
<stop stop-color="#F39B14"/>
<stop offset="1" stop-color="#F36414"/>
</linearGradient>
<linearGradient id="paint24_linear_47_508" x1="46.6668" y1="26.6665" x2="46.6668" y2="29.3331" gradientUnits="userSpaceOnUse">
<stop stop-color="#F39B14"/>
<stop offset="1" stop-color="#F36414"/>
</linearGradient>
<linearGradient id="paint25_linear_47_508" x1="48" y1="33.3335" x2="48" y2="36.0001" gradientUnits="userSpaceOnUse">
<stop stop-color="#F39B14"/>
<stop offset="1" stop-color="#F36414"/>
</linearGradient>
<linearGradient id="paint26_linear_47_508" x1="60" y1="26.6665" x2="60" y2="29.3331" gradientUnits="userSpaceOnUse">
<stop stop-color="#F39B14"/>
<stop offset="1" stop-color="#F36414"/>
</linearGradient>
<linearGradient id="paint27_linear_47_508" x1="62.6668" y1="33.3335" x2="62.6668" y2="36.0001" gradientUnits="userSpaceOnUse">
<stop stop-color="#F39B14"/>
<stop offset="1" stop-color="#F36414"/>
</linearGradient>
<linearGradient id="paint28_linear_47_508" x1="28.0001" y1="2.66699" x2="28.0001" y2="29.3331" gradientUnits="userSpaceOnUse">
<stop stop-color="#F39B14"/>
<stop offset="1" stop-color="#F36414"/>
</linearGradient>
<linearGradient id="paint29_linear_47_508" x1="40.0001" y1="2.66699" x2="40.0001" y2="29.3331" gradientUnits="userSpaceOnUse">
<stop stop-color="#F39B14"/>
<stop offset="1" stop-color="#F36414"/>
</linearGradient>
<linearGradient id="paint30_linear_47_508" x1="52.0001" y1="2.66699" x2="52.0001" y2="29.3331" gradientUnits="userSpaceOnUse">
<stop stop-color="#F39B14"/>
<stop offset="1" stop-color="#F36414"/>
</linearGradient>
<clipPath id="clip0_47_508">
<rect width="80" height="80" fill="white"/>
</clipPath>
</defs>
</svg>
