<svg width="55" height="73" viewBox="0 0 55 73" fill="none" xmlns="http://www.w3.org/2000/svg">
<g clip-path="url(#clip0_47_496)">
<path d="M41.6796 44.1726V10.6934C41.6796 4.79704 36.8607 0 30.9374 0C25.0142 0 20.1952 4.79704 20.1952 10.6934V44.1726C16.5403 47.2929 14.4661 51.7646 14.4661 56.6037C14.4661 65.6447 21.8551 73.0001 30.9374 73.0001C40.0197 73.0001 47.4088 65.6447 47.4088 56.6037C47.4088 51.7646 45.3345 47.2927 41.6796 44.1726ZM30.9374 68.7227C24.2244 68.7227 18.7629 63.286 18.7629 56.6035C18.7629 52.7558 20.5384 49.2214 23.634 46.9066C24.1741 46.5027 24.4921 45.8692 24.4921 45.1967V10.6934C24.4921 7.15557 27.3835 4.27734 30.9374 4.27734C34.4914 4.27734 37.3827 7.15557 37.3827 10.6934V45.1967C37.3827 45.8692 37.7007 46.5027 38.2408 46.9066C41.3364 49.2214 43.1119 52.7558 43.1119 56.6035C43.1119 63.286 37.6504 68.7227 30.9374 68.7227Z" fill="url(#paint0_linear_47_496)"/>
<path d="M33.0859 49.0606V10.6934C33.0859 9.51224 32.1239 8.55469 30.9374 8.55469C29.7509 8.55469 28.789 9.51224 28.789 10.6934V49.0606C25.4865 49.994 23.0598 53.021 23.0598 56.6035C23.0598 60.9275 26.5937 64.4453 30.9374 64.4453C35.2811 64.4453 38.815 60.9275 38.815 56.6035C38.815 53.021 36.3883 49.9942 33.0859 49.0606ZM30.9374 60.168C28.963 60.168 27.3567 58.569 27.3567 56.6035C27.3567 54.6381 28.963 53.0391 30.9374 53.0391C32.9118 53.0391 34.5181 54.6381 34.5181 56.6035C34.5181 58.569 32.9118 60.168 30.9374 60.168Z" fill="url(#paint1_linear_47_496)"/>
<path d="M10.8853 40.9199H3.72388C2.53737 40.9199 1.57544 41.8775 1.57544 43.0586C1.57544 44.2397 2.53737 45.1973 3.72388 45.1973H10.8853C12.0718 45.1973 13.0338 44.2397 13.0338 43.0586C13.0338 41.8775 12.0718 40.9199 10.8853 40.9199Z" fill="url(#paint2_linear_47_496)"/>
<path d="M3.72388 36.6426H8.02075C9.20726 36.6426 10.1692 35.685 10.1692 34.5039C10.1692 33.3228 9.20726 32.3652 8.02075 32.3652H3.72388C2.53737 32.3652 1.57544 33.3228 1.57544 34.5039C1.57544 35.685 2.53737 36.6426 3.72388 36.6426Z" fill="url(#paint3_linear_47_496)"/>
<path d="M10.8853 23.8105H3.72388C2.53737 23.8105 1.57544 24.7681 1.57544 25.9492C1.57544 27.1303 2.53737 28.0879 3.72388 28.0879H10.8853C12.0718 28.0879 13.0338 27.1303 13.0338 25.9492C13.0338 24.7681 12.0718 23.8105 10.8853 23.8105Z" fill="url(#paint4_linear_47_496)"/>
<path d="M3.72388 19.5332H8.02075C9.20726 19.5332 10.1692 18.5756 10.1692 17.3945C10.1692 16.2134 9.20726 15.2559 8.02075 15.2559H3.72388C2.53737 15.2559 1.57544 16.2134 1.57544 17.3945C1.57544 18.5756 2.53737 19.5332 3.72388 19.5332Z" fill="url(#paint5_linear_47_496)"/>
<path d="M10.8853 6.70117H3.72388C2.53737 6.70117 1.57544 7.65873 1.57544 8.83984C1.57544 10.021 2.53737 10.9785 3.72388 10.9785H10.8853C12.0718 10.9785 13.0338 10.021 13.0338 8.83984C13.0338 7.65873 12.0718 6.70117 10.8853 6.70117Z" fill="url(#paint6_linear_47_496)"/>
</g>
<defs>
<linearGradient id="paint0_linear_47_496" x1="30.9374" y1="0" x2="30.9374" y2="73.0001" gradientUnits="userSpaceOnUse">
<stop stop-color="#F39B14"/>
<stop offset="1" stop-color="#F36414"/>
</linearGradient>
<linearGradient id="paint1_linear_47_496" x1="30.9374" y1="8.55469" x2="30.9374" y2="64.4453" gradientUnits="userSpaceOnUse">
<stop stop-color="#F39B14"/>
<stop offset="1" stop-color="#F36414"/>
</linearGradient>
<linearGradient id="paint2_linear_47_496" x1="7.30461" y1="40.9199" x2="7.30461" y2="45.1973" gradientUnits="userSpaceOnUse">
<stop stop-color="#F39B14"/>
<stop offset="1" stop-color="#F36414"/>
</linearGradient>
<linearGradient id="paint3_linear_47_496" x1="5.87231" y1="32.3652" x2="5.87231" y2="36.6426" gradientUnits="userSpaceOnUse">
<stop stop-color="#F39B14"/>
<stop offset="1" stop-color="#F36414"/>
</linearGradient>
<linearGradient id="paint4_linear_47_496" x1="7.30461" y1="23.8105" x2="7.30461" y2="28.0879" gradientUnits="userSpaceOnUse">
<stop stop-color="#F39B14"/>
<stop offset="1" stop-color="#F36414"/>
</linearGradient>
<linearGradient id="paint5_linear_47_496" x1="5.87231" y1="15.2559" x2="5.87231" y2="19.5332" gradientUnits="userSpaceOnUse">
<stop stop-color="#F39B14"/>
<stop offset="1" stop-color="#F36414"/>
</linearGradient>
<linearGradient id="paint6_linear_47_496" x1="7.30461" y1="6.70117" x2="7.30461" y2="10.9785" gradientUnits="userSpaceOnUse">
<stop stop-color="#F39B14"/>
<stop offset="1" stop-color="#F36414"/>
</linearGradient>
<clipPath id="clip0_47_496">
<rect width="55" height="73" fill="white"/>
</clipPath>
</defs>
</svg>
